<svg width="24" height="24" viewBox="0 0 24 24" fill="none" xmlns="http://www.w3.org/2000/svg">
	<path fill-rule="evenodd" clip-rule="evenodd"
		d="M18.75 4H16.08L14.87 2.68C14.4271 2.24459 13.8311 2.00041 13.21 2H10.29C9.65816 2.00529 9.05413 2.26056 8.61 2.71L7.42 4H4.75C4.33579 4 4 4.33579 4 4.75C4 5.16421 4.33579 5.5 4.75 5.5H18.75C19.1642 5.5 19.5 5.16421 19.5 4.75C19.5 4.33579 19.1642 4 18.75 4ZM9.69 3.74C9.8496 3.58138 10.065 3.49163 10.29 3.49H13.21C13.4257 3.48936 13.6334 3.57171 13.79 3.72L14.04 3.99H9.46L9.69 3.74Z"
		fill="rgb(255, 69, 58)" />
	<path fill-rule="evenodd" clip-rule="evenodd"
		d="M4.23 8.52L4.27 18C4.27 20.4632 6.22681 22.42 8.69 22.42L14.85 22.46C17.3132 22.46 19.31 20.4632 19.31 18L19.27 8.52C19.27 7.41543 18.3746 6.52 17.27 6.52H6.27C5.73267 6.50925 5.21363 6.71521 4.82986 7.09145C4.44609 7.4677 4.22989 7.98256 4.23 8.52ZM9.5 12.05C9.5 12.4642 9.16421 12.8 8.75 12.8C8.33579 12.8 8 12.4642 8 12.05V9.68C8 9.26579 8.33579 8.93 8.75 8.93C9.16421 8.93 9.5 9.26579 9.5 9.68V12.05ZM11.75 16.75C12.1642 16.75 12.5 16.4142 12.5 16V9.68C12.5 9.26579 12.1642 8.93 11.75 8.93C11.3358 8.93 11 9.26579 11 9.68V16C11 16.4142 11.3358 16.75 11.75 16.75ZM15.5 12.05C15.5 12.4642 15.1642 12.8 14.75 12.8C14.3358 12.8 14 12.4642 14 12.05V9.68C14 9.26579 14.3358 8.93 14.75 8.93C15.1642 8.93 15.5 9.26579 15.5 9.68V12.05Z"
		fill="rgb(255, 69, 58)" />
</svg>