<svg width="20" height="20" viewBox="0 0 20 20" fill="none" xmlns="http://www.w3.org/2000/svg">
	<path fill-rule="evenodd" clip-rule="evenodd"
		d="M4 0H16C18.2091 0 20 1.79086 20 4V16C20 18.2091 18.2091 20 16 20H4C1.79086 20 0 18.2091 0 16V4C0 1.79086 1.79086 0 4 0ZM17.7678 17.7678C18.2366 17.2989 18.5 16.663 18.5 16V4C18.5 3.33696 18.2366 2.70107 17.7678 2.23223C17.2989 1.76339 16.663 1.5 16 1.5H4C2.61929 1.5 1.5 2.61929 1.5 4V16C1.5 16.663 1.76339 17.2989 2.23223 17.7678C2.70107 18.2366 3.33696 18.5 4 18.5H16C16.663 18.5 17.2989 18.2366 17.7678 17.7678Z"
		fill="rgba(235, 235, 245, 0.6)" />
	<path
		d="M13.69 6.73C13.3972 6.43755 12.9228 6.43755 12.63 6.73L10.21 9.15L7.79 6.73C7.49449 6.45464 7.03399 6.46277 6.74838 6.74838C6.46277 7.03399 6.45464 7.49449 6.73 7.79L9.15 10.21L6.73 12.63C6.43755 12.9228 6.43755 13.3972 6.73 13.69C7.02282 13.9825 7.49718 13.9825 7.79 13.69L10.21 11.27L12.63 13.69C12.7705 13.8307 12.9612 13.9098 13.16 13.91C13.358 13.9057 13.5472 13.8272 13.69 13.69C13.9825 13.3972 13.9825 12.9228 13.69 12.63L11.27 10.21L13.69 7.79C13.9825 7.49718 13.9825 7.02282 13.69 6.73Z"
		fill="rgba(235, 235, 245, 0.6)" />
</svg>